<svg xmlns="http://www.w3.org/2000/svg" xmlns:xlink="http://www.w3.org/1999/xlink" width="146" height="169" viewBox="0 0 146 169"><defs><path id="j7yna" d="M122.65 7212.68h-1.3v-129.25h1.3zm-7.04-4.82h-1.3v-129.5h1.3zm-7.03 21.22h-1.3v-101.25h1.3zm-7.04-5.82h-1.3v-117.74h1.3zm-7.03 9.31h-1.3v-97.38h1.3zm-7.04-33.02h-1.3v-84.59h1.3zm-7.03 9.93h-1.3v-105.75h1.3zm-7.04-39.2h-1.3v-76.38h1.3zm-7.03 40.24h-1.3v-88.12h1.3zm-7.04-62.94h-1.3v-34.67h1.3zM52.3 7181H51v-45.55h1.3zm77.38 3.16h-1.3v-113.17h1.3zm7.04 52.83h-1.3v-123.83h1.3zm7.03-29.13h-1.3V7081.1h1.3zm7.04 24.71h-1.3v-138.95h1.3zm7.03-7.15h-1.3v-90.23h1.3zm7.04-45.49h-1.3v-84.62h1.3zm7.04 38.5h-1.3v-103.69h1.3zm7.03-26.07h-1.3v-44.78h1.3zm7.04 3.65h-1.3V7126h1.3zm7.03-15.3h-1.3v-45.27h1.3z"/></defs><g><g transform="translate(-49 -7069)"><use fill="#ab6333" xlink:href="#j7yna"/></g></g></svg>