<svg xmlns="http://www.w3.org/2000/svg" xmlns:xlink="http://www.w3.org/1999/xlink" width="137" height="237" viewBox="0 0 137 237"><defs><path id="65kya" d="M641.99 401.74a6.15 6.15 0 0 1-4.33 1.96c-1.91 0-3.2-1.05-3.2-2.82 0-3.22 4.4-4.66 7.53-4.94v-2.53c0-1.5-.68-2.82-3.1-2.82a6.9 6.9 0 0 0-3.83 1.21l-.13-.19a6.65 6.65 0 0 1 4.76-1.85c3.04 0 3.67 1.63 3.67 3.37v8.33c0 .72.33 1.19 1.07 1.19.63 0 1.01-.36 1.31-.66l.08.05c-.19.61-.79 1.58-2.08 1.58-1.18 0-1.72-.8-1.75-1.88zm0-.47v-4.88c-2.96.38-6.13 1.54-6.13 4.1 0 1.28.76 2.21 2.46 2.21 1.48 0 2.9-.66 3.67-1.43zm53.8-4.53c0-3.89 3.07-6.98 6.74-6.98 3.67 0 6.74 3.1 6.74 6.98 0 3.9-3.07 6.96-6.74 6.96a6.85 6.85 0 0 1-6.73-6.96zm11.78 0c0-3.58-1.73-6.48-5.04-6.48s-5.04 2.9-5.04 6.48c0 3.6 1.7 6.46 5.04 6.46s5.04-2.87 5.04-6.46zm10.46 3.92v-9.99h-1.48v-.05l2.8-2.46h.05v2.02h4.05v.5h-4.05v10.04c0 1.38.6 2.12 2 2.12.99 0 1.89-.36 2.3-.58l.06.11a4.26 4.26 0 0 1-2.99 1.33c-1.29 0-2.74-.66-2.74-3.04zm18.87 3.04c-3.53 0-5.89-2.73-5.89-6.76 0-4.36 2.82-7.18 6.11-7.18 3.15 0 5.04 2.57 4.85 5.3h-9.37c-.05.39-.08.83-.08 1.27 0 3.53 1.62 6.1 4.87 6.1 1.7 0 3.6-.7 4.52-2.26l.14.05c-.69 2.07-2.6 3.48-5.15 3.48zm-4.24-9.05l7.58-.17v-.16c0-2.79-1.15-4.06-3.2-4.06-2.3 0-3.92 1.6-4.38 4.39zm-73.07-4.89v2.21h-.06a4.68 4.68 0 0 0-2-.41c-.42 0-1.35.85-2.17 1.8v9.92h-1.74V389.5h1.74v3.3c1.25-1.31 2.36-3.03 4.23-3.03zm92.43-7.97v21.5h-1.73v-21.5zm-125.1 14.57c0 3.72-2.17 7.34-6.66 7.34-1.6 0-2.74-.47-3.54-1.08v.66H615v-21.5h1.73v18.31a3.78 3.78 0 0 0 3.87 3.11c2.66 0 4.74-2.54 4.74-6.57 0-3.8-2.16-5.96-4.93-5.93a5.1 5.1 0 0 0-3.34 1.4l-.21-.29c1-1.4 2.62-2.05 4.29-2.05 3.34 0 5.78 2.6 5.78 6.6zm61.1 6.87v.05h-2.58v-.05c.52-.94.6-1.85.6-3.23v-5.9c0-1.83-.76-3.26-3.06-3.26a6 6 0 0 0-3.78 1.31l-.24-.33a6.31 6.31 0 0 1 4.62-2.06c2.55 0 3.83 1.55 3.83 4.03v6.18c0 1.52.03 2.32.6 3.26zm-10.94-21.44h1.74v21.5h-1.74zm7.05-53.1h-1.25V203.04h1.25zm-6.79-4.69h-1.25V198.1h1.25zm-6.79 20.63h-1.25V246.2h1.25zm-6.78-5.66h-1.26V224.51h1.26zm-6.8 9.06h-1.25v-94.68h1.26zm-6.78-32.1h-1.26v-82.24h1.26zm-6.8 9.65h-1.25v-102.8h1.26zm-6.78-38.11h-1.25v-74.25h1.25zm-6.79 39.12h-1.25v-85.67h1.25zm-6.79-61.2h-1.25v-33.7h1.25zm-6.79 32.5H615v-44.28h1.25zm74.68 3.07h-1.25V190.94h1.25zm6.79 51.37h-1.25V231.94h1.25zM704.5 324h-1.25V200.77h1.25zm6.79 24.03h-1.26V212.94h1.26zm6.79-6.95h-1.26v-87.73h1.26zm6.79-44.23h-1.26V214.6h1.26zm6.79 37.44h-1.26V233.48h1.26zm6.78-25.36h-1.25V265.4h1.25zm6.8 3.56h-1.26V244.4h1.25zm6.78-14.88h-1.25v-44h1.25zm-71.54 129.28l-.04.2c-.43 0-.6.09-.95.5a7.82 7.82 0 0 1-3.8-5.6l.37-.27c.17.78.29 1.16.56 1.8.68-.44.79-.5 1.5-1.06l.6-.58.5.27c.4.23.53.35.53.46 0 .09-.14.16-.32.16l-.4-.03c-.87.46-1.32.66-2.27 1.07a6.51 6.51 0 0 0 3.72 3.08zm-9.57-.9l.04 2.06h-.87l.03-1.79v-4.67c-.51 1.24-.91 1.95-1.84 3.33l-.23-.17a18.5 18.5 0 0 0 2.01-5.76h-1.22l-.62.08-.14-.5.92.09h1.12v-2.38l-.03-.76h.83v3.14h.64l.58-.75.83.9v.18h-2.05v1.68c1.4.62 1.74.93 1.74 1.5 0 .25-.12.44-.3.44-.15 0-.2-.07-.4-.36-.3-.5-.58-.8-1.04-1.15zm6.95-4.25v-.27h-3.77v4.8c1.32-.34 1.35-.33 2.7-.72l.1.27a55.4 55.4 0 0 1-4.48 1.66l-.4-.76.31-.05.97-.21v-9.77l-.04-.57h.84v.29h4.57v3.86l.03 1.47zm0-.6v-4.4h-3.77v1.9h3.13l.24.34h-3.37v2.16zm-28.73-1.43l-.16-.12c.89-1.14 1.3-1.88 1.9-3.3l.17-.67.74.26c.23.08.38.2.38.3 0 .1-.15.19-.51.24-.22.45-.26.51-.53.96h2.32l.62-.7.88.84v.2h-2.44c1.02.69 1.16.82 1.16 1.26 0 .33-.15.56-.35.56-.22 0-.27-.06-.52-.66a4.17 4.17 0 0 0-.78-1.17h-1.1a7.01 7.01 0 0 1-1.78 2zm4.67 1.11l.86.82v.18h-2.3v1.04c1.5.52 1.61.6 1.61 1.1 0 .25-.1.37-.27.37-.11 0-.17-.02-.25-.14-.45-.54-.6-.66-1.09-1v1.92l.04 2.94h-.78l.03-2.73v-1.85a10.84 10.84 0 0 1-2.34 3.25l-.14-.18a14.32 14.32 0 0 0 2.3-4.72h-1.85l-.62.08-.14-.48.93.07h1.86v-1.95h.71v1.95h.84zm6.11-4.16l.95.86v.2h-3.45c1.26.82 1.34.9 1.34 1.32 0 .3-.15.49-.34.49-.15 0-.25-.1-.43-.44a4.82 4.82 0 0 0-1.08-1.38H656a8.09 8.09 0 0 1-1.79 2l-.15-.17a11.7 11.7 0 0 0 1.85-3.15l.29-.73.7.36c.2.11.33.22.33.33 0 .11-.14.18-.54.25-.2.36-.23.42-.45.78h2.97zm-.45 11.19v-.68h-3.53v.6h-.74l.02-1.27v-6.01l-.04-.51h.76v.29h4.24v5.31l.04 2.27h-.75zm0-1.02v-6.23h-3.53v1.78h2.89l.23.33h-3.12v1.78h2.89l.23.33h-3.12v2.01zm40.17-4.76l-.04.18c-.5.15-.61.24-.82.6a12.15 12.15 0 0 1-4.8-3.4l.03 3.23h3.45v2.49l.04 2.25h-.84v-.52h-5.67v.52h-.84l.04-1.28v-3.1l-.04-.55h.84v.2h2.2v-3.4a18.38 18.38 0 0 1-5.69 4.42l-.12-.2a19.06 19.06 0 0 0 5.04-4.5h-4.24l-.62.08-.14-.5.92.08h4.85v-1.32c-1.4.12-2.18.17-3.54.2l-.16-.34c2.51-.2 4.6-.55 6.57-1.1l.59-.27.62.46c.37.26.4.29.4.36 0 .05-.11.1-.25.1-.13 0-.3 0-.47-.03-1.3.26-1.5.29-2.8.5v.05c0 .06-.04.11-.16.2v1.19h3.8l.73-.8 1 .95v.18h-5.4a10.66 10.66 0 0 0 5.52 3.07zm-8.65.94v1.42H696l.24.33h-5.27v1.8h5.67v-3.55zm17.42 3.72l.02.69h-.85l.03-1.7v-6.18l-.04-.76h.84v7.62h3.94v-9.02l-.04-1.54h.92v10.56h3.45l.24.33zm9.75.69h-.86l.02-.69v-7.27l-.04-.76h.84v6.88z"/></defs><g><g transform="translate(-615 -191)"><use fill="#e6e7e8" xlink:href="#65kya"/></g></g></svg>