<svg id="レイヤー_1" data-name="レイヤー 1" xmlns="http://www.w3.org/2000/svg" viewBox="0 0 370.49 60.52"><defs><style>.cls-2{fill:#d93909}.cls-3{fill:#002063}</style></defs><path d="M183.61 59.6h-12.25q-1.13-3.47-2.34-7.08t-2.55-7.22q-2.27-.07-4.53-.11t-4.53 0h-3.68q-1.84 0-3.73.11-1.42 3.61-2.62 7.22t-2.2 7.08h-6.87q.85-1.84 2.27-5.1t3.12-7.36l3.65-8.82q1.95-4.71 3.89-9.52t3.82-9.49q1.88-4.67 3.43-8.71h5.38l4.85 12.89Q171.36 30.35 174 37t5.1 12.57q2.45 5.92 4.51 10.03zm-25.07-35.34q-1.84 4.25-3.47 8.39t-3.19 8.46h13q-1.56-4.32-3.08-8.46t-3.26-8.39zM325.17 59.6h-12.26q-1.13-3.47-2.34-7.08T308 45.3q-2.27-.07-4.53-.11t-4.53 0h-3.68q-1.84 0-3.68.11-1.42 3.61-2.62 7.22t-2.2 7.08h-6.87q.85-1.84 2.27-5.1t3.12-7.36l3.65-8.82q1.95-4.71 3.89-9.52t3.82-9.49q1.88-4.67 3.43-8.71h5.38l4.85 12.89q2.58 6.87 5.21 13.49t5.1 12.57q2.5 5.94 4.56 10.05zM300.1 24.26q-1.84 4.25-3.47 8.39t-3.19 8.46h13q-1.56-4.32-3.08-8.46t-3.26-8.39zm-92.84-13.31q2.69 0 4.6.14a26.55 26.55 0 0 1 3.29.42 11.63 11.63 0 0 1 2.41.74 12.22 12.22 0 0 1 1.95 1.1 11.5 11.5 0 0 1 3.36 3.86 11.43 11.43 0 0 1 1.24 5.49 12.38 12.38 0 0 1-2.83 8.43 15.46 15.46 0 0 1-8.14 4.6q3.4 6 7.29 12t7.79 11.86H215.4l-12.67-22.3h-.64v2.9q0 5.88.14 10.44t.42 9H191q.28-4.39.42-9t.14-10.44v-9.62q0-5.88-.14-10.44t-.42-9.18zm5.38 8.36a5.61 5.61 0 0 0-1.95-2.8 7.37 7.37 0 0 0-3.4-1.24 37.93 37.93 0 0 0-5-.28q-.21 9.63-.21 19.26.42.07.81.11h.74q4.67 0 7.15-2.51t2.48-7.61a15.6 15.6 0 0 0-.62-4.93zm40.72-8.36q2.69 0 4.6.14a26.55 26.55 0 0 1 3.29.42 11.63 11.63 0 0 1 2.41.74 12.22 12.22 0 0 1 1.95 1.1 11.5 11.5 0 0 1 3.39 3.87 11.43 11.43 0 0 1 1.24 5.49 12.38 12.38 0 0 1-2.83 8.43 15.46 15.46 0 0 1-8.14 4.6q3.4 6 7.29 12t7.79 11.86H261.5l-12.67-22.31h-.64v2.9q0 5.88.14 10.44t.42 9h-11.61q.28-4.39.42-9t.14-10.44v-9.62q0-5.88-.14-10.44t-.42-9.17zm5.38 8.36a5.61 5.61 0 0 0-1.95-2.8 7.37 7.37 0 0 0-3.4-1.24 37.93 37.93 0 0 0-5-.28q-.21 9.63-.21 19.26.42.07.81.11h.74q4.67 0 7.15-2.51t2.48-7.61a15.6 15.6 0 0 0-.62-4.93zM132.48 57.62q-5.74 2.9-14.45 2.9a32.57 32.57 0 0 1-11-1.74 23.32 23.32 0 0 1-8.21-4.89 21 21 0 0 1-5.13-7.47 24.39 24.39 0 0 1-1.77-9.35 30.47 30.47 0 0 1 2.3-12.5 22.84 22.84 0 0 1 6.16-8.36 24.5 24.5 0 0 1 9-4.71A38 38 0 0 1 120 10a28.75 28.75 0 0 1 3.89.28q2.05.28 4 .74a33.09 33.09 0 0 1 3.65 1.1c1.16.42 2.94 1.35 2.94 1.35l-1.63 7.22a22.27 22.27 0 0 0-5.68-4.55 17.12 17.12 0 0 0-7.49-1.75 13.94 13.94 0 0 0-5.7 1.27 15.31 15.31 0 0 0-5.21 3.89 20 20 0 0 0-3.77 6.73 29.06 29.06 0 0 0-1.49 9.72 25.94 25.94 0 0 0 1.49 9.33 18.4 18.4 0 0 0 3.86 6.3 14.2 14.2 0 0 0 5.38 3.37 17.06 17.06 0 0 0 6.05 1.13 16.12 16.12 0 0 0 3.47-.39 22.52 22.52 0 0 0 3.47-1.06 18 18 0 0 0 3.22-1.66 32.21 32.21 0 0 0 4-3.22zm236.02 0q-5.74 2.9-14.45 2.9a32.57 32.57 0 0 1-11-1.74 23.32 23.32 0 0 1-8.21-4.89 21 21 0 0 1-5.13-7.47 24.39 24.39 0 0 1-1.77-9.35 30.47 30.47 0 0 1 2.3-12.5 22.84 22.84 0 0 1 6.16-8.36 24.5 24.5 0 0 1 9-4.71A38 38 0 0 1 356 10a28.75 28.75 0 0 1 3.89.28q2.05.28 4 .74a33.09 33.09 0 0 1 3.65 1.1c1.16.42 2.94 1.35 2.94 1.35l-1.63 7.22a22.27 22.27 0 0 0-5.68-4.55 17.12 17.12 0 0 0-7.49-1.75 13.94 13.94 0 0 0-5.7 1.27 15.31 15.31 0 0 0-5.21 3.89 20 20 0 0 0-3.77 6.73 29.06 29.06 0 0 0-1.46 9.72 25.94 25.94 0 0 0 1.46 9.33 18.4 18.4 0 0 0 3.86 6.3 14.2 14.2 0 0 0 5.41 3.37 17.06 17.06 0 0 0 6.05 1.13 16.12 16.12 0 0 0 3.47-.39 22.52 22.52 0 0 0 3.47-1.06 18 18 0 0 0 3.22-1.66 32.21 32.21 0 0 0 4-3.22z" fill="#231815"/><path class="cls-2" d="M44.76 40.35V15.52a23.71 23.71 0 0 0-15.34-5.6v30.43z"/><path class="cls-3" d="M41.78 43.33H11.11v11.59a23.81 23.81 0 0 0 38.21-11.59z"/><path class="cls-2" d="M26.45 40.35V9.92a23.71 23.71 0 0 0-15.34 5.6v24.83z"/><path class="cls-3" d="M7.54 54.92a23.81 23.81 0 0 0 .94-6.62A23.76 23.76 0 0 0 0 30.09v24.83z"/><path class="cls-2" d="M26.45 7.54A23.82 23.82 0 0 1 14.85 0h11.6z"/><path class="cls-3" d="M72.57 32.81a23.8 23.8 0 0 1-24.83 7.54v-7.54z"/></svg>